<?xml version="1.0" encoding="utf-8"?>
<!-- Generator: Adobe Illustrator 27.0.0, SVG Export Plug-In . SVG Version: 6.00 Build 0)  -->
<svg version="1.1" id="Layer_1" xmlns="http://www.w3.org/2000/svg" xmlns:xlink="http://www.w3.org/1999/xlink" x="0px" y="0px"
	 viewBox="0 0 128 128" style="enable-background:new 0 0 128 128;" xml:space="preserve">
<style type="text/css">
	.st0{fill:#72B629;}
	.st1{fill:#FEFEFE;}
	.st2{fill:#FEFEFD;}
</style>
<g id="Group_20091" transform="translate(943.948 200.051)">
	<path id="Path_12001" class="st0" d="M-815.9-190.1c0.1-5.4-4.3-9.8-9.7-9.9c-0.1,0-0.1,0-0.2,0c-36.1,0-72.2,0-108.2,0
		c-1.7,0-3.3,0.4-4.8,1.2c-3.3,1.8-5.3,5.3-5.1,9c0,35.7,0,71.3,0,107c0,0.6,0,1.3,0.1,1.9c0.4,5,4.5,8.9,9.5,8.9h108.8
		c5.3,0,9.6-4.3,9.6-9.6c0-18.1,0-36.3,0-54.4C-816-154.1-816-172.1-815.9-190.1z"/>
	<path id="Path_12002" class="st1" d="M-891.9-192c5.3-0.1,9.8,3.7,10.8,8.9c0.2,1.8,0.1,3.6-0.3,5.3c-1.6,8.9-3.3,17.8-4.9,26.8
		c-1.7,9.4-3.4,18.8-5.1,28.2c-1,4.7-5,8.2-9.8,8.5c-5.1,0.6-10-2.5-11.6-7.4c-0.6-2.2-0.6-4.5,0-6.7c1.4-7.8,2.8-15.6,4.3-23.4
		c1.4-7.4,2.7-14.9,4.1-22.3c0.5-2.9,1.1-5.9,1.6-8.8C-902-188.3-897.3-192.1-891.9-192z"/>
	<path id="Path_12003" class="st2" d="M-907.5-104c5.7-0.1,10.7,3.8,12.1,9.3c1.4,6.5-2.7,12.9-9.2,14.3c-0.1,0-0.2,0-0.3,0.1
		c-5.6,1.2-11.4-1.5-13.9-6.7c-2.8-6-0.2-13.1,5.8-15.9c1-0.5,2-0.8,3.1-0.9C-909.1-103.9-908.3-104-907.5-104z"/>
</g>
</svg>
